<?xml version="1.0" encoding="UTF-8"?><svg id="Layer_1" xmlns="http://www.w3.org/2000/svg" viewBox="0 0 170 170"><defs><style>.cls-1{fill:#fff;}.cls-2{fill:#f1b434;}</style></defs><path class="cls-2" d="M129.28,77.57L87.69,5.53c-1.2-2.07-4.18-2.07-5.38,0l-41.59,72.04c-1.2,2.07.3,4.66,2.69,4.66,1.11,0,2.14-.59,2.69-1.55l36.21-62.72c1.2-2.07,4.18-2.07,5.38,0l36.21,62.72c.55.96,1.58,1.55,2.69,1.55,2.39,0,3.89-2.59,2.69-4.66Z"/><path class="cls-2" d="M87.69,29.26c-1.2-2.07-4.18-2.07-5.38,0l-27.87,48.27c-1.2,2.07.3,4.66,2.69,4.66h17c1.72,0,3.11-1.39,3.11-3.11h0c0-1.72-1.39-3.11-3.11-3.11h-6.24c-2.39,0-3.89-2.59-2.69-4.66l17.11-29.63c1.2-2.07,4.18-2.07,5.38,0l17.11,29.63c1.2,2.07-.3,4.66-2.69,4.66h-6.07c-1.72,0-3.11,1.39-3.11,3.11h0c0,1.72,1.39,3.11,3.11,3.11h16.83c2.39,0,3.89-2.59,2.69-4.66l-27.87-48.27Z"/><path class="cls-1" d="M37.84,111.75h-3.49l-.93-5.17c-.8-.79-1.79-1.43-2.96-1.93-1.17-.5-2.57-.75-4.19-.75-3.8,0-6.72,1.38-8.76,4.13-2.04,2.75-3.06,6.25-3.06,10.48v.58c0,4.24,1,7.74,3,10.51,2,2.77,4.77,4.16,8.32,4.16,1.66,0,3.16-.26,4.52-.78s2.4-1.16,3.14-1.91l.93-5.17h3.49v6.5c-1.05,1.36-2.64,2.57-4.75,3.63s-4.55,1.59-7.33,1.59c-4.75,0-8.65-1.76-11.7-5.27-3.05-3.52-4.57-7.93-4.57-13.26v-.53c0-5.36,1.5-9.79,4.49-13.3,3-3.51,6.92-5.26,11.78-5.26,2.78,0,5.22.54,7.33,1.62,2.11,1.08,3.69,2.29,4.75,3.63v6.5Z"/><path class="cls-1" d="M42.44,101.1v-3.19h9.04v35.3l4.09.7v3.16h-13.13v-3.16l4.09-.7v-31.41l-4.09-.7Z"/><path class="cls-1" d="M71.72,137.61c-3.78,0-6.79-1.26-9.03-3.78s-3.35-5.79-3.35-9.81v-1.1c0-3.87,1.15-7.09,3.45-9.65,2.3-2.57,5.03-3.85,8.17-3.85,3.65,0,6.42,1.1,8.3,3.31,1.88,2.21,2.82,5.16,2.82,8.84v3.09h-17.63l-.08.13c.05,2.61.71,4.76,1.98,6.44,1.27,1.68,3.05,2.52,5.35,2.52,1.67,0,3.14-.24,4.41-.72,1.26-.48,2.36-1.13,3.28-1.97l1.93,3.21c-.97.94-2.26,1.73-3.85,2.37-1.6.64-3.52.97-5.76.97ZM70.96,113.3c-1.66,0-3.07.7-4.24,2.1-1.17,1.4-1.89,3.15-2.16,5.26l.05.13h12.53v-.65c0-1.94-.52-3.57-1.56-4.87-1.04-1.31-2.58-1.96-4.62-1.96Z"/><path class="cls-1" d="M95.95,113.1l-3.26.5,5.6,15.47.45,1.96h.15l.48-1.96,5.42-15.47-3.29-.5v-3.19h10.5v3.19l-2.23.38-9.11,23.6h-3.74l-9.22-23.6-2.23-.38v-3.19h10.5v3.19Z"/><path class="cls-1" d="M127.41,137.61c-3.78,0-6.79-1.26-9.03-3.78s-3.35-5.79-3.35-9.81v-1.1c0-3.87,1.15-7.09,3.45-9.65,2.3-2.57,5.03-3.85,8.17-3.85,3.65,0,6.42,1.1,8.3,3.31,1.88,2.21,2.82,5.16,2.82,8.84v3.09h-17.63l-.08.13c.05,2.61.71,4.76,1.98,6.44,1.27,1.68,3.05,2.52,5.35,2.52,1.67,0,3.14-.24,4.41-.72,1.26-.48,2.36-1.13,3.28-1.97l1.93,3.21c-.97.94-2.26,1.73-3.85,2.37-1.6.64-3.52.97-5.76.97ZM126.66,113.3c-1.66,0-3.07.7-4.24,2.1-1.17,1.4-1.89,3.15-2.16,5.26l.05.13h12.53v-.65c0-1.94-.52-3.57-1.56-4.87-1.04-1.31-2.58-1.96-4.62-1.96Z"/><path class="cls-1" d="M142.65,113.1v-3.19h8.51l.48,3.94c.77-1.39,1.72-2.48,2.85-3.26s2.42-1.18,3.88-1.18c.39,0,.78.03,1.19.09.41.06.72.12.94.19l-.65,4.6-2.81-.15c-1.31,0-2.4.31-3.29.92-.89.61-1.57,1.47-2.06,2.57v15.59l4.09.7v3.16h-13.13v-3.16l4.09-.7v-19.41l-4.09-.7Z"/><path class="cls-1" d="M17.72,159.84h-6.06l-1.33,2.94h-.82l4.81-10.45h.76l4.81,10.45h-.82l-1.34-2.94ZM17.43,159.2l-2.75-6.03-2.73,6.03h5.48Z"/><path class="cls-1" d="M19.78,161.84l.34-.6c.6.51,1.66.94,2.81.94,1.64,0,2.3-.58,2.3-1.46,0-2.27-5.17-.6-5.17-3.66,0-1.18.99-2.14,2.96-2.14.99,0,2.06.3,2.67.76l-.34.6c-.66-.48-1.51-.7-2.34-.7-1.52,0-2.2.63-2.2,1.46,0,2.34,5.17.69,5.17,3.66,0,1.27-1.09,2.14-3.08,2.14-1.28,0-2.51-.43-3.12-1Z"/><path class="cls-1" d="M26.38,161.84l.34-.6c.6.51,1.66.94,2.81.94,1.64,0,2.3-.58,2.3-1.46,0-2.27-5.17-.6-5.17-3.66,0-1.18.99-2.14,2.96-2.14.99,0,2.06.3,2.67.76l-.34.6c-.66-.48-1.51-.7-2.34-.7-1.52,0-2.2.63-2.2,1.46,0,2.34,5.17.69,5.17,3.66,0,1.27-1.09,2.14-3.08,2.14-1.28,0-2.51-.43-3.12-1Z"/><path class="cls-1" d="M40.72,159.06h-6.71c.07,1.85,1.43,3.11,3.3,3.11.99,0,1.9-.36,2.49-1.09l.43.49c-.69.84-1.76,1.27-2.94,1.27-2.36,0-4.02-1.64-4.02-3.96s1.6-3.96,3.73-3.96,3.72,1.61,3.72,3.93c0,.06-.01.13-.01.21ZM34.03,158.48h5.97c-.1-1.69-1.33-2.9-2.99-2.9s-2.87,1.19-2.99,2.9Z"/><path class="cls-1" d="M41.36,161.84l.34-.6c.6.51,1.66.94,2.81.94,1.64,0,2.3-.58,2.3-1.46,0-2.27-5.17-.6-5.17-3.66,0-1.18.99-2.14,2.96-2.14.99,0,2.06.3,2.67.76l-.34.6c-.66-.48-1.51-.7-2.34-.7-1.52,0-2.2.63-2.2,1.46,0,2.34,5.17.69,5.17,3.66,0,1.27-1.09,2.14-3.08,2.14-1.28,0-2.51-.43-3.12-1Z"/><path class="cls-1" d="M47.96,161.84l.34-.6c.6.51,1.66.94,2.81.94,1.64,0,2.3-.58,2.3-1.46,0-2.27-5.17-.6-5.17-3.66,0-1.18.99-2.14,2.96-2.14.99,0,2.06.3,2.67.76l-.34.6c-.66-.48-1.51-.7-2.34-.7-1.52,0-2.2.63-2.2,1.46,0,2.34,5.17.69,5.17,3.66,0,1.27-1.09,2.14-3.08,2.14-1.28,0-2.51-.43-3.12-1Z"/><path class="cls-1" d="M54.86,158.88c0-2.31,1.66-3.96,3.9-3.96s3.9,1.64,3.9,3.96-1.66,3.96-3.9,3.96-3.9-1.64-3.9-3.96ZM61.89,158.88c0-1.96-1.34-3.28-3.14-3.28s-3.14,1.33-3.14,3.28,1.34,3.29,3.14,3.29,3.14-1.33,3.14-3.29Z"/><path class="cls-1" d="M68.12,154.92v.73c-.06,0-.12-.01-.18-.01-1.73,0-2.76,1.15-2.76,3.08v4.06h-.75v-7.8h.72v1.7c.48-1.13,1.51-1.76,2.97-1.76Z"/><path class="cls-1" d="M69.41,152.49c0-.33.27-.61.61-.61s.61.27.61.6-.27.61-.61.61-.61-.27-.61-.6ZM69.64,154.98h.75v7.8h-.75v-7.8Z"/><path class="cls-1" d="M78.63,157.84v4.94h-.72v-1.39c-.49.9-1.45,1.45-2.81,1.45-1.75,0-2.81-.9-2.81-2.23,0-1.18.75-2.18,2.91-2.18h2.67v-.63c0-1.45-.79-2.23-2.32-2.23-1.08,0-2.05.4-2.69.99l-.37-.54c.78-.69,1.91-1.1,3.12-1.1,1.93,0,3,.99,3,2.91ZM77.89,160.48v-1.46h-2.66c-1.61,0-2.18.67-2.18,1.57,0,1.02.79,1.64,2.17,1.64s2.23-.63,2.67-1.75Z"/><path class="cls-1" d="M91.06,159.06h-6.71c.07,1.85,1.43,3.11,3.3,3.11.99,0,1.9-.36,2.49-1.09l.43.49c-.69.84-1.76,1.27-2.94,1.27-2.36,0-4.02-1.64-4.02-3.96s1.6-3.96,3.73-3.96,3.72,1.61,3.72,3.93c0,.06-.01.13-.01.21ZM84.37,158.48h5.97c-.1-1.69-1.33-2.9-2.99-2.9s-2.87,1.19-2.99,2.9Z"/><path class="cls-1" d="M95.39,157.55c0-3.05,2.32-5.3,5.42-5.3,1.48,0,2.81.48,3.72,1.45l-.48.49c-.9-.88-1.99-1.24-3.21-1.24-2.67,0-4.69,1.97-4.69,4.6s2.02,4.6,4.69,4.6c1.22,0,2.32-.37,3.21-1.25l.48.49c-.91.97-2.24,1.46-3.72,1.46-3.11,0-5.42-2.26-5.42-5.3Z"/><path class="cls-1" d="M105.1,158.88c0-2.31,1.66-3.96,3.9-3.96s3.9,1.64,3.9,3.96-1.66,3.96-3.9,3.96-3.9-1.64-3.9-3.96ZM112.13,158.88c0-1.96-1.34-3.28-3.14-3.28s-3.14,1.33-3.14,3.28,1.34,3.29,3.14,3.29,3.14-1.33,3.14-3.29Z"/><path class="cls-1" d="M122.44,158.88c0,2.33-1.66,3.96-3.85,3.96-1.4,0-2.58-.7-3.2-1.9v1.84h-.72v-11.08h.75v5.06c.63-1.16,1.79-1.84,3.17-1.84,2.2,0,3.85,1.61,3.85,3.96ZM121.69,158.88c0-1.96-1.36-3.28-3.15-3.28s-3.14,1.33-3.14,3.28,1.34,3.29,3.14,3.29,3.15-1.33,3.15-3.29Z"/><path class="cls-1" d="M127.9,154.92v.73c-.06,0-.12-.01-.18-.01-1.73,0-2.76,1.15-2.76,3.08v4.06h-.75v-7.8h.72v1.7c.48-1.13,1.51-1.76,2.97-1.76Z"/><path class="cls-1" d="M135.06,157.84v4.94h-.72v-1.39c-.49.9-1.45,1.45-2.81,1.45-1.75,0-2.81-.9-2.81-2.23,0-1.18.75-2.18,2.91-2.18h2.67v-.63c0-1.45-.79-2.23-2.32-2.23-1.08,0-2.05.4-2.69.99l-.37-.54c.78-.69,1.91-1.1,3.12-1.1,1.93,0,3,.99,3,2.91ZM134.31,160.48v-1.46h-2.66c-1.61,0-2.18.67-2.18,1.57,0,1.02.79,1.64,2.17,1.64s2.23-.63,2.67-1.75Z"/><path class="cls-1" d="M144.57,158.22v4.56h-.75v-4.5c0-1.76-.94-2.69-2.52-2.69-1.84,0-2.96,1.18-2.96,3.03v4.15h-.75v-7.8h.72v1.69c.52-1.09,1.61-1.75,3.09-1.75,1.9,0,3.17,1.12,3.17,3.3Z"/><path class="cls-1" d="M152.62,161l.55.4c-.64.94-1.72,1.43-2.96,1.43h-.07l-.19.75c.79.06,1.27.52,1.27,1.2,0,.76-.66,1.24-1.57,1.24-.45,0-.84-.1-1.18-.37l.21-.42c.27.21.61.31.97.31.6,0,.99-.28.99-.79,0-.45-.34-.76-.99-.76h-.3l.31-1.18c-2-.25-3.39-1.81-3.39-3.93,0-2.33,1.66-3.96,3.94-3.96,1.24,0,2.32.48,2.96,1.43l-.55.4c-.57-.79-1.43-1.16-2.4-1.16-1.84,0-3.18,1.31-3.18,3.28s1.34,3.29,3.18,3.29c.97,0,1.84-.37,2.4-1.16Z"/><path class="cls-1" d="M160.51,157.84v4.94h-.72v-1.39c-.49.9-1.45,1.45-2.81,1.45-1.75,0-2.81-.9-2.81-2.23,0-1.18.75-2.18,2.91-2.18h2.67v-.63c0-1.45-.79-2.23-2.32-2.23-1.08,0-2.05.4-2.69.99l-.37-.54c.78-.69,1.91-1.1,3.12-1.1,1.93,0,3,.99,3,2.91ZM159.76,160.48v-1.46h-2.66c-1.61,0-2.18.67-2.18,1.57,0,1.02.79,1.64,2.17,1.64s2.23-.63,2.67-1.75Z"/></svg>