<?xml version="1.0" encoding="UTF-8"?><svg id="Layer_1" xmlns="http://www.w3.org/2000/svg" viewBox="0 0 201 70"><defs><style>.cls-1{fill:#f1b434;}.cls-2{fill:#ffffff;}</style></defs><path class="cls-1" d="M64.25,56.71L38.02,11.29c-.75-1.31-2.64-1.31-3.39,0L8.41,56.71c-.75,1.31.19,2.94,1.7,2.94.7,0,1.35-.37,1.7-.98l22.83-39.55c.75-1.31,2.64-1.31,3.39,0l22.83,39.55c.35.61,1,.98,1.7.98,1.51,0,2.45-1.63,1.7-2.94Z"/><path class="cls-1" d="M38.02,26.26c-.75-1.31-2.64-1.31-3.39,0l-17.57,30.44c-.75,1.31.19,2.94,1.7,2.94h10.72c1.08,0,1.96-.88,1.96-1.96h0c0-1.08-.88-1.96-1.96-1.96h-3.93c-1.51,0-2.45-1.63-1.7-2.94l10.79-18.68c.75-1.31,2.64-1.31,3.39,0l10.79,18.68c.75,1.31-.19,2.94-1.7,2.94h-3.83c-1.08,0-1.96.88-1.96,1.96h0c0,1.08.88,1.96,1.96,1.96h10.61c1.51,0,2.45-1.63,1.7-2.94l-17.57-30.44Z"/><path class="cls-2" d="M97.74,21.04h-2.71l-.72-4.01c-.62-.61-1.39-1.11-2.3-1.5-.91-.39-1.99-.58-3.25-.58-2.95,0-5.21,1.07-6.8,3.2-1.58,2.14-2.38,4.85-2.38,8.13v.45c0,3.28.78,6,2.33,8.15,1.55,2.15,3.7,3.22,6.45,3.22,1.29,0,2.45-.2,3.5-.6s1.86-.9,2.43-1.48l.72-4.01h2.71v5.04c-.82,1.05-2.04,1.99-3.68,2.81s-3.53,1.24-5.69,1.24c-3.69,0-6.71-1.36-9.07-4.09-2.36-2.73-3.54-6.15-3.54-10.28v-.41c0-4.15,1.16-7.59,3.49-10.31,2.32-2.72,5.37-4.08,9.13-4.08,2.15,0,4.05.42,5.69,1.26s2.86,1.78,3.68,2.81v5.04Z"/><path class="cls-2" d="M101.31,12.79v-2.47h7.01v27.38l3.17.55v2.45h-10.18v-2.45l3.17-.55V13.33l-3.17-.55Z"/><path class="cls-2" d="M124.01,41.1c-2.93,0-5.27-.98-7-2.93s-2.6-4.49-2.6-7.6v-.86c0-3,.89-5.49,2.68-7.49,1.78-1.99,3.9-2.99,6.34-2.99,2.83,0,4.97.86,6.44,2.57s2.19,4,2.19,6.85v2.39h-13.67l-.06.1c.04,2.02.55,3.69,1.54,4.99.99,1.3,2.37,1.96,4.15,1.96,1.3,0,2.44-.18,3.42-.55.98-.37,1.83-.88,2.54-1.53l1.5,2.49c-.75.73-1.75,1.34-2.99,1.84-1.24.5-2.73.75-4.47.75ZM123.43,22.25c-1.29,0-2.38.54-3.29,1.63-.91,1.08-1.47,2.44-1.67,4.08l.04.1h9.72v-.51c0-1.51-.4-2.76-1.21-3.78-.81-1.01-2-1.52-3.58-1.52Z"/><path class="cls-2" d="M142.8,22.09l-2.53.39,4.34,11.99.35,1.52h.12l.37-1.52,4.21-11.99-2.55-.39v-2.47h8.14v2.47l-1.73.29-7.07,18.3h-2.9l-7.15-18.3-1.73-.29v-2.47h8.14v2.47Z"/><path class="cls-2" d="M167.2,41.1c-2.93,0-5.27-.98-7-2.93s-2.6-4.49-2.6-7.6v-.86c0-3,.89-5.49,2.68-7.49,1.78-1.99,3.9-2.99,6.34-2.99,2.83,0,4.97.86,6.44,2.57s2.19,4,2.19,6.85v2.39h-13.67l-.06.1c.04,2.02.55,3.69,1.54,4.99.99,1.3,2.37,1.96,4.15,1.96,1.3,0,2.44-.18,3.42-.55.98-.37,1.83-.88,2.54-1.53l1.5,2.49c-.75.73-1.75,1.34-2.99,1.84-1.24.5-2.73.75-4.47.75ZM166.61,22.25c-1.29,0-2.38.54-3.29,1.63-.91,1.08-1.47,2.44-1.67,4.08l.04.1h9.72v-.51c0-1.51-.4-2.76-1.21-3.78-.81-1.01-2-1.52-3.58-1.52Z"/><path class="cls-2" d="M179.01,22.09v-2.47h6.6l.37,3.06c.6-1.08,1.33-1.92,2.21-2.53s1.88-.92,3.01-.92c.3,0,.61.02.92.07.32.05.56.09.73.15l-.51,3.56-2.18-.12c-1.01,0-1.86.24-2.55.71-.69.47-1.22,1.14-1.6,2v12.09l3.17.55v2.45h-10.18v-2.45l3.17-.55v-15.05l-3.17-.55Z"/><path class="cls-2" d="M82.08,54.9h-4.7l-1.03,2.28h-.64l3.73-8.1h.59l3.73,8.1h-.64l-1.04-2.28ZM81.86,54.4l-2.13-4.68-2.12,4.68h4.25Z"/><path class="cls-2" d="M83.68,56.45l.27-.46c.46.39,1.28.73,2.18.73,1.27,0,1.78-.45,1.78-1.13,0-1.76-4-.46-4-2.84,0-.91.76-1.65,2.29-1.65.76,0,1.6.23,2.07.59l-.27.46c-.51-.37-1.17-.54-1.82-.54-1.18,0-1.7.49-1.7,1.13,0,1.82,4,.53,4,2.84,0,.98-.84,1.65-2.38,1.65-1,0-1.94-.34-2.42-.78Z"/><path class="cls-2" d="M88.79,56.45l.27-.46c.46.39,1.28.73,2.18.73,1.27,0,1.78-.45,1.78-1.13,0-1.76-4-.46-4-2.84,0-.91.76-1.65,2.29-1.65.76,0,1.6.23,2.07.59l-.27.46c-.51-.37-1.17-.54-1.82-.54-1.18,0-1.7.49-1.7,1.13,0,1.82,4,.53,4,2.84,0,.98-.84,1.65-2.38,1.65-1,0-1.94-.34-2.42-.78Z"/><path class="cls-2" d="M99.9,54.29h-5.2c.06,1.43,1.11,2.41,2.56,2.41.76,0,1.47-.28,1.93-.84l.34.38c-.53.65-1.37.98-2.28.98-1.83,0-3.11-1.27-3.11-3.07s1.24-3.07,2.89-3.07,2.88,1.25,2.88,3.04c0,.05-.01.1-.01.16ZM94.72,53.84h4.63c-.08-1.31-1.03-2.24-2.31-2.24s-2.22.93-2.31,2.24Z"/><path class="cls-2" d="M100.4,56.45l.27-.46c.46.39,1.28.73,2.18.73,1.27,0,1.78-.45,1.78-1.13,0-1.76-4-.46-4-2.84,0-.91.76-1.65,2.29-1.65.76,0,1.6.23,2.07.59l-.27.46c-.51-.37-1.17-.54-1.82-.54-1.18,0-1.7.49-1.7,1.13,0,1.82,4,.53,4,2.84,0,.98-.84,1.65-2.38,1.65-1,0-1.94-.34-2.42-.78Z"/><path class="cls-2" d="M105.51,56.45l.27-.46c.46.39,1.28.73,2.18.73,1.27,0,1.78-.45,1.78-1.13,0-1.76-4-.46-4-2.84,0-.91.76-1.65,2.29-1.65.76,0,1.6.23,2.07.59l-.27.46c-.51-.37-1.17-.54-1.82-.54-1.18,0-1.7.49-1.7,1.13,0,1.82,4,.53,4,2.84,0,.98-.84,1.65-2.38,1.65-1,0-1.94-.34-2.42-.78Z"/><path class="cls-2" d="M110.86,54.16c0-1.79,1.28-3.07,3.02-3.07s3.02,1.27,3.02,3.07-1.28,3.07-3.02,3.07-3.02-1.27-3.02-3.07ZM116.31,54.16c0-1.52-1.04-2.55-2.43-2.55s-2.43,1.03-2.43,2.55,1.04,2.55,2.43,2.55,2.43-1.03,2.43-2.55Z"/><path class="cls-2" d="M121.13,51.09v.57s-.09-.01-.14-.01c-1.34,0-2.14.89-2.14,2.38v3.15h-.58v-6.04h.56v1.32c.37-.88,1.17-1.37,2.3-1.37Z"/><path class="cls-2" d="M122.13,49.2c0-.25.21-.47.47-.47s.47.21.47.46-.21.47-.47.47-.47-.21-.47-.46ZM122.31,51.13h.58v6.04h-.58v-6.04Z"/><path class="cls-2" d="M129.28,53.35v3.83h-.56v-1.08c-.38.69-1.12,1.12-2.18,1.12-1.35,0-2.18-.69-2.18-1.72,0-.91.58-1.69,2.26-1.69h2.07v-.49c0-1.12-.61-1.72-1.79-1.72-.83,0-1.59.31-2.08.76l-.29-.42c.6-.53,1.48-.86,2.42-.86,1.49,0,2.33.76,2.33,2.26ZM128.7,55.39v-1.13h-2.06c-1.25,0-1.69.52-1.69,1.22,0,.79.61,1.27,1.68,1.27s1.72-.49,2.07-1.35Z"/><path class="cls-2" d="M138.91,54.29h-5.2c.06,1.43,1.11,2.41,2.56,2.41.76,0,1.47-.28,1.93-.84l.34.38c-.53.65-1.37.98-2.28.98-1.83,0-3.11-1.27-3.11-3.07s1.24-3.07,2.89-3.07,2.88,1.25,2.88,3.04c0,.05-.01.1-.01.16ZM133.72,53.84h4.63c-.08-1.31-1.03-2.24-2.31-2.24s-2.22.93-2.31,2.24Z"/><path class="cls-2" d="M142.26,53.13c0-2.36,1.79-4.11,4.2-4.11,1.15,0,2.18.37,2.88,1.12l-.37.38c-.69-.68-1.54-.96-2.49-.96-2.07,0-3.63,1.53-3.63,3.56s1.56,3.56,3.63,3.56c.95,0,1.79-.29,2.49-.97l.37.38c-.71.75-1.74,1.13-2.88,1.13-2.41,0-4.2-1.75-4.2-4.11Z"/><path class="cls-2" d="M149.78,54.16c0-1.79,1.28-3.07,3.02-3.07s3.02,1.27,3.02,3.07-1.28,3.07-3.02,3.07-3.02-1.27-3.02-3.07ZM155.23,54.16c0-1.52-1.04-2.55-2.43-2.55s-2.43,1.03-2.43,2.55,1.04,2.55,2.43,2.55,2.43-1.03,2.43-2.55Z"/><path class="cls-2" d="M163.22,54.16c0,1.81-1.28,3.07-2.99,3.07-1.09,0-2-.54-2.48-1.47v1.42h-.56v-8.59h.58v3.92c.49-.9,1.39-1.42,2.45-1.42,1.7,0,2.99,1.25,2.99,3.07ZM162.64,54.16c0-1.52-1.05-2.55-2.44-2.55s-2.43,1.03-2.43,2.55,1.04,2.55,2.43,2.55,2.44-1.03,2.44-2.55Z"/><path class="cls-2" d="M167.45,51.09v.57s-.09-.01-.14-.01c-1.34,0-2.14.89-2.14,2.38v3.15h-.58v-6.04h.56v1.32c.37-.88,1.17-1.37,2.3-1.37Z"/><path class="cls-2" d="M172.99,53.35v3.83h-.56v-1.08c-.38.69-1.12,1.12-2.18,1.12-1.35,0-2.18-.69-2.18-1.72,0-.91.58-1.69,2.26-1.69h2.07v-.49c0-1.12-.61-1.72-1.79-1.72-.83,0-1.59.31-2.08.76l-.29-.42c.6-.53,1.48-.86,2.42-.86,1.49,0,2.33.76,2.33,2.26ZM172.41,55.39v-1.13h-2.06c-1.25,0-1.69.52-1.69,1.22,0,.79.61,1.27,1.68,1.27s1.72-.49,2.07-1.35Z"/><path class="cls-2" d="M180.36,53.65v3.53h-.58v-3.48c0-1.37-.73-2.08-1.96-2.08-1.42,0-2.29.91-2.29,2.35v3.22h-.58v-6.04h.56v1.31c.41-.84,1.25-1.35,2.4-1.35,1.47,0,2.45.87,2.45,2.56Z"/><path class="cls-2" d="M186.6,55.8l.43.31c-.5.73-1.33,1.11-2.29,1.11h-.06l-.15.58c.61.05.98.41.98.93,0,.59-.51.96-1.22.96-.35,0-.65-.08-.91-.29l.16-.32c.21.16.47.24.75.24.46,0,.76-.22.76-.61,0-.35-.27-.59-.76-.59h-.23l.24-.91c-1.55-.2-2.63-1.4-2.63-3.04,0-1.81,1.28-3.07,3.06-3.07.96,0,1.79.37,2.29,1.11l-.43.31c-.44-.61-1.11-.9-1.86-.9-1.42,0-2.46,1.02-2.46,2.55s1.04,2.55,2.46,2.55c.75,0,1.42-.29,1.86-.9Z"/><path class="cls-2" d="M192.71,53.35v3.83h-.56v-1.08c-.38.69-1.12,1.12-2.18,1.12-1.35,0-2.18-.69-2.18-1.72,0-.91.58-1.69,2.26-1.69h2.07v-.49c0-1.12-.61-1.72-1.79-1.72-.83,0-1.59.31-2.08.76l-.29-.42c.6-.53,1.48-.86,2.42-.86,1.49,0,2.33.76,2.33,2.26ZM192.13,55.39v-1.13h-2.06c-1.25,0-1.69.52-1.69,1.22,0,.79.61,1.27,1.68,1.27s1.72-.49,2.07-1.35Z"/></svg>